<?xml version="1.0" encoding="UTF-8" standalone="no"?>
<!-- Created with Inkscape (http://www.inkscape.org/) -->

<svg
   width="231.58508mm"
   height="186.37106mm"
   viewBox="0 0 231.58509 186.37106"
   version="1.1"
   id="svg5"
   inkscape:version="1.1 (c68e22c387, 2021-05-23)"
   sodipodi:docname="Logo-1.svg"
   xmlns:inkscape="http://www.inkscape.org/namespaces/inkscape"
   xmlns:sodipodi="http://sodipodi.sourceforge.net/DTD/sodipodi-0.dtd"
   xmlns="http://www.w3.org/2000/svg"
   xmlns:svg="http://www.w3.org/2000/svg">
  <sodipodi:namedview
     id="namedview7"
     pagecolor="#a6a6a6"
     bordercolor="#eeeeee"
     borderopacity="1"
     inkscape:pageshadow="0"
     inkscape:pageopacity="0"
     inkscape:pagecheckerboard="0"
     inkscape:document-units="mm"
     showgrid="false"
     showguides="true"
     inkscape:guide-bbox="true"
     inkscape:zoom="0.5"
     inkscape:cx="642"
     inkscape:cy="197"
     inkscape:window-width="2560"
     inkscape:window-height="1057"
     inkscape:window-x="-8"
     inkscape:window-y="-8"
     inkscape:window-maximized="1"
     inkscape:current-layer="g116449" />
  <defs
     id="defs2" />
  <g
     inkscape:groupmode="layer"
     id="layer2"
     inkscape:label="Logo"
     style="display:inline"
     transform="translate(10.25415,-46.384244)">
    <g
       id="g80559">
      <g
         id="g80669">
        <g
           id="g72570" />
        <g
           id="g112714">
          <g
             id="g116449">
            <g
               id="g117224">
              <path
                 style="display:inline;fill:#ffffff;stroke:#000000;stroke-width:2;stroke-linecap:butt;stroke-linejoin:miter;stroke-miterlimit:4;stroke-dasharray:none;stroke-opacity:1"
                 d="m 55.97161,125.94244 c 0,0 0.18382,4.96785 -0.26545,7.39225 -0.24738,1.33496 -0.73492,2.62837 -1.32205,3.85254 -0.77881,1.62381 -1.6011,3.30604 -2.88744,4.56645 -1.24902,1.22384 -2.99235,1.81029 -4.49013,2.71279 -1.68475,1.01516 -5.05785,3.03951 -5.05785,3.03951 0,0 0.83364,2.32653 1.40962,3.41505 0.66335,1.25364 1.47984,2.42589 2.33861,3.55468 0.40139,0.5276 1.30962,1.49671 1.30962,1.49671 l -3.73493,-0.52894 c 0,0 0.67451,3.25845 1.39632,4.73844 0.64604,1.32463 1.6422,2.45284 2.57243,3.59594 1.05937,1.30178 2.17743,2.56616 3.41441,3.70052 0.65963,0.60491 2.12325,1.64349 2.12325,1.64349 0,0 -1.58673,2.07329 -2.28765,3.17266 -0.71879,1.12742 -1.42618,2.27389 -1.95972,3.49989 -0.42454,0.97554 -0.77623,1.99397 -0.97517,3.03912 -0.20405,1.07201 -0.29891,2.1787 -0.21493,3.26672 0.11481,1.48733 0.24318,3.06805 0.97561,4.36762 0.50891,0.90298 1.31367,1.69667 2.24506,2.15151 1.55726,0.76048 3.46941,1.19104 5.14494,0.74836 1.54678,-0.40866 3.78855,-2.94665 3.78855,-2.94665 0,0 0.9264,2.46356 1.91766,3.22728 1.3134,1.01192 3.12516,1.40691 4.78268,1.36637 1.11055,-0.0272 2.21873,-0.47453 3.15586,-1.07106 0.89845,-0.57191 1.63651,-1.40973 2.21102,-2.30651 0.59103,-0.92256 0.83054,-2.26307 1.20472,-3.05819 0.37418,-0.79513 0.0581,-0.0755 1.55483,0.39217 1.49671,0.46773 2.48576,0.74884 3.69501,0.46773 0.80025,-0.18603 1.46731,-0.78532 2.05797,-1.35639 0.5301,-0.51251 1.2789,-1.80484 1.2789,-1.80484 l 57.67008,0.0468 c 0,0 0.53457,2.00578 0.95338,2.9508 0.4122,0.9301 0.84889,1.88243 1.52135,2.64583 0.60337,0.68497 1.31281,1.37735 2.18281,1.65364 1.26156,0.40065 2.6956,0.22984 3.96875,-0.13229 1.49147,-0.42422 4.0349,-2.3151 4.0349,-2.3151 0,0 0.91361,1.54773 1.5875,2.11667 0.66306,0.5598 1.47027,0.9924 2.3151,1.19062 1.52422,0.35762 3.77031,0.26455 4.69636,-0.0662 0.92603,-0.33075 2.68353,-0.93416 3.63802,-1.91822 0.76894,-0.79276 1.45521,-2.97657 1.45521,-2.97657 0,0 2.10168,0.68148 3.175,0.59532 1.16794,-0.0938 2.36394,-0.49569 3.30729,-1.19063 0.87444,-0.64418 1.61593,-1.57151 1.96283,-2.60072 0.62453,-1.85291 0.58473,-3.99348 0.0215,-5.86595 -0.34346,-1.14193 -1.36061,-1.96025 -1.98437,-2.97656 -0.26615,-0.43365 -0.74906,-1.32999 -0.74906,-1.32999 0,0 5.52566,-5.88444 7.41982,-9.39754 1.1006,-2.04129 1.59878,-4.36095 2.19278,-6.60268 0.57592,-2.17352 0.85324,-4.41566 1.32292,-6.61458 0.20782,-0.97293 0.66145,-2.91042 0.66145,-2.91042 0,0 -5.69153,-2.89856 -7.67291,-5.29166 -1.32205,-1.59677 -1.89029,-3.71141 -2.51354,-5.68854 -0.95756,-3.03762 -1.84842,-9.37442 -1.84842,-9.37442 0,0 2.31356,-2.85304 3.03904,-4.51621 2.62583,-6.01975 3.1791,-12.74854 4.49792,-19.18229 0.81817,-3.991404 1.30042,-7.186045 1.50862,-10.822456 0.14673,-2.562672 0.0369,-5.14117 -0.18571,-7.698367 -0.28234,-3.243171 -0.80918,-6.466596 -1.4552,-9.657292 -0.84896,-4.193031 -1.72583,-8.410228 -3.175,-12.435416 -1.18939,-3.303618 -2.78344,-6.460834 -4.49792,-9.525 -0.92181,-1.647484 -3.09935,-4.740193 -3.09935,-4.740193 0,0 -4.42368,2.092323 -6.55794,3.284984 -3.21539,1.79681 -6.40333,3.668899 -9.39271,5.820834 -2.74479,1.975865 -5.36307,4.142655 -7.80521,6.482291 -2.27691,2.181342 -4.40483,4.529754 -6.35,7.011458 -1.58747,2.025336 -4.31845,6.399176 -4.31845,6.399176 0,0 -10.72662,-2.739646 -16.21724,-2.959592 -7.03112,-0.281656 -15.69822,0.980643 -21.00389,2.116666 -0.90037,0.192782 -2.64583,0.793748 -2.64583,0.793748 0,0 -5.89646,-9.017966 -9.39271,-13.096872 -2.09025,-2.438599 -4.32215,-4.80328 -6.87917,-6.746875 -2.5953,-1.972687 -5.52644,-3.486925 -8.46667,-4.894792 -3.19818,-1.531381 -9.92187,-3.836408 -9.92187,-3.836408 0,0 -2.52265,5.143302 -3.57187,7.805208 -2.60794,6.616403 -5.285637,13.280531 -6.74688,20.240625 -0.837116,3.987296 -1.137737,8.096632 -1.124481,12.170833 0.01384,4.253985 0.835664,8.466877 1.256771,12.69999 0.219349,2.20497 0.34222,4.42184 0.66146,6.61458 0.47223,3.24357 0.8006,6.55276 1.85208,9.65729 0.47447,1.4009 1.22989,2.6966 1.98438,3.96875 0.98592,1.66237 3.30729,4.7625 3.30729,4.7625 z"
                 id="path65386-3"
                 sodipodi:nodetypes="casaacssccaaacaaaaaaacaaaassaaccaaaacaasacaaaaacaaacaacssaaasscsssscascaaacaaaaaaacc" />
              <path
                 style="fill:none;stroke:#000000;stroke-width:2;stroke-linecap:butt;stroke-linejoin:miter;stroke-miterlimit:4;stroke-dasharray:none;stroke-opacity:1"
                 d="m 52.28193,169.84947 c -1.74256,2.00414 -2.85629,3.8195 -3.78543,5.99148 -0.60679,1.41844 -1.04127,2.9495 -1.12253,4.49013 -0.10034,1.90236 -0.1179,3.98748 0.79513,5.65943 0.77888,1.42629 2.12074,2.77719 3.695,3.18051 1.6573,0.4246 3.74216,-0.2402 5.02067,-1.06539 l 2.60994,-1.68453 c 0,0 0.94643,1.93128 1.77061,2.56283 1.58914,1.21772 3.68889,2.36512 5.65941,2.0112 2.04818,-0.36787 3.55988,-2.32644 4.78732,-4.00684 0.59933,-0.82051 1.15275,-2.8219 1.15275,-2.8219 0,0 2.33551,1.16255 3.60146,1.21608 0.97849,0.0414 2.09362,-0.0832 2.8531,-0.70158 0.8558,-0.69676 1.41562,-1.88436 1.42595,-2.98788 0.0407,-4.35165 -1.96749,-9.21257 -5.40158,-11.88568 -4.50063,-3.50332 -11.26091,-4.53456 -16.83799,-3.04018 -1.99395,0.53428 -4.64065,1.26151 -6.22381,3.08232 z"
                 id="path102467"
                 sodipodi:nodetypes="saaaascaaacaasass" />
              <g
                 id="g112668"
                 transform="translate(-201.30741,0.01076173)">
                <path
                   style="display:inline;fill:#916f6f;stroke:#000000;stroke-width:2;stroke-linecap:butt;stroke-linejoin:miter;stroke-miterlimit:4;stroke-dasharray:none;stroke-opacity:1"
                   d="m 301.62976,74.900182 c 0,0 -1.04365,3.564464 -1.35599,5.390885 -0.40312,2.357215 -0.49497,4.758117 -0.66146,7.14375 -0.26124,3.743307 -0.50451,7.49246 -0.52916,11.244791 -0.0171,2.603172 -0.18518,5.241122 0.26458,7.805202 0.86494,4.93106 3.10355,9.51961 4.63021,14.2875 1.38219,4.3167 3.32814,8.49838 4.10104,12.96458 0.41384,2.39141 0.83681,4.91751 0.26458,7.27604 -0.5726,2.36008 -1.73629,4.75987 -3.57187,6.35 -2.21589,1.91959 -5.30304,2.73854 -8.20209,3.175 -3.71572,0.55941 -7.56579,-0.0293 -11.24479,-0.79375 -3.89173,-0.80869 -7.55033,-2.50227 -11.24479,-3.96875 -4.66092,-1.8501 -9.25801,-3.87312 -13.75833,-6.0854 -1.57603,-0.77475 -4.63021,-2.51356 -4.63021,-2.51356 0,0 1.32149,-4.98579 1.5875,-7.54062 0.12787,-1.22808 0,-3.70417 0,-3.70417 0,0 -3.76161,-5.02692 -5.02708,-7.87135 -0.91104,-2.04775 -1.28629,-4.29742 -1.78594,-6.48229 -0.9294,-4.06408 -2.0145,-8.32929 -2.24896,-12.30312 -0.1955,-3.313459 -0.0657,-7.432292 -0.13137,-10.753747 -0.0645,-3.258781 0.66267,-6.712507 0.99127,-9.949898 0.45066,-4.439947 1.42826,-8.843157 2.77812,-13.096874 1.33543,-4.208257 3.38672,-8.156905 5.22552,-12.170834 0.81727,-1.784037 2.57969,-5.291666 2.57969,-5.291666 0,0 5.49558,1.468137 8.06979,2.645833 3.81333,1.74459 7.44407,3.943569 10.78177,6.482241 3.31438,2.520938 6.30351,5.479533 9.06198,8.599009 1.67093,1.889608 3.20355,3.920417 4.49792,6.085416 0.90087,1.506821 2.24896,4.762447 2.24896,4.762447 0,0 1.93899,-0.602233 3.24486,-0.93726 1.77545,-0.4555 4.06425,-0.749405 4.06425,-0.749405 z"
                   id="path65501-6"
                   sodipodi:nodetypes="caaaassaaaaascscaasssaacaaaacsc" />
                <path
                   style="display:inline;fill:#ffffff;stroke:#000000;stroke-width:2;stroke-linecap:round;stroke-linejoin:miter;stroke-miterlimit:4;stroke-dasharray:none;stroke-opacity:1"
                   d="m 262.92147,104.42576 c 0,0 -5.23849,-1.6838 -6.92228,-3.55468 -1.6838,-1.870889 -1.6838,-1.964435 -1.6838,-1.964435 0,0 2.3386,-0.374176 2.99342,-0.280633 l 0.65481,0.09355 c 0,0 -6.08038,-5.238482 -5.51912,-9.915699 l 0.56127,-4.677217 c 0,0 2.52569,1.403165 2.89987,2.057974 l 0.37418,0.654812 c 0,0 -3.74178,-9.0738 -0.65481,-15.902537 3.08696,-6.828737 3.18051,-6.828737 3.18051,-6.828737 0,0 0.37417,-1.122532 3.27405,1.49671 l 2.89987,2.61924 c 0,0 -1.87088,-3.554685 -1.30962,-5.612659 l 0.56127,-2.057976 c 0,0 1.49671,-0.187087 3.55468,1.216077 2.05798,1.403165 3.08697,0.18709 7.57709,10.851142 l 4.49013,10.664055 v 0"
                   id="path60941"
                   sodipodi:nodetypes="cscscscscscscscsscc" />
                <path
                   style="display:inline;fill:none;stroke:#000000;stroke-width:2;stroke-linecap:round;stroke-linejoin:miter;stroke-miterlimit:4;stroke-dasharray:none;stroke-opacity:1"
                   d="m 289.43537,78.093045 c 0,0 7.75167,-2.809602 14.92092,-3.536048 3.44792,-0.34937 8.38897,-0.949516 11.8706,-0.868115 4.21006,0.09843 8.08323,0.780977 12.00805,1.661865 3.53763,0.793988 12.10469,2.711979 12.10469,2.711979"
                   id="path60935-5"
                   sodipodi:nodetypes="csssc" />
                <path
                   style="display:inline;fill:none;stroke:#000000;stroke-width:2;stroke-linecap:round;stroke-linejoin:miter;stroke-miterlimit:4;stroke-dasharray:none;stroke-opacity:1"
                   d="m 345.60001,81.500329 c 0,0 8.98026,5.425572 13.09621,11.038231 4.11595,5.612662 6.36102,8.79317 8.2319,14.03164 1.87089,5.23849 3.92887,10.66406 4.49013,15.15419 0.56127,4.49012 0.37418,6.36101 1.30962,9.91569 0.93545,3.55469 1.87089,8.37555 4.49013,10.62061 2.61924,2.24506 6.24265,3.78246 6.66904,4.82086 0,0 -1.82363,11.07737 -4.31438,16.01213 -1.72701,3.42161 -7.15524,9.00067 -7.15524,9.00067"
                   id="path60939-4"
                   sodipodi:nodetypes="cssssssac" />
                <path
                   style="display:inline;fill:#000000;stroke:#000000;stroke-width:2;stroke-linecap:butt;stroke-linejoin:miter;stroke-miterlimit:4;stroke-dasharray:none;stroke-opacity:1"
                   d="m 365.80559,103.85741 c 0,0 6.36101,-2.05797 7.57709,-3.74176 1.21607,-1.683799 1.21607,-1.777345 1.21607,-1.777345 l -3.46114,-0.09354 c 0,0 0.93545,-0.374177 2.24507,-2.899873 1.30962,-2.525699 2.89987,-7.951269 2.61924,-9.635067 l -0.28064,-1.683797 -2.80632,1.496708 c 0,0 2.24506,-6.454558 0.74835,-11.225321 -1.49671,-4.77076 -1.96443,-9.72861 -3.08696,-10.944686 -1.12253,-1.216077 -0.18709,-0.748355 -2.61924,0.8419 -2.43216,1.590251 -4.02241,3.367595 -4.02241,3.367595 0,0 2.5257,-3.741774 1.77734,-5.238483 -0.74835,-1.496708 -1.30961,-3.648228 -1.30961,-3.648228 0,0 -1.77735,0.654809 -3.08697,2.057974 -1.30962,1.403165 -5.23848,5.425572 -5.61266,6.080382 -0.37418,0.654812 -3.27405,5.051395 -5.23848,10.476965 l -1.96443,5.425572"
                   id="path60943-0"
                   sodipodi:nodetypes="csccssccssscscsssc" />
                <path
                   style="display:inline;fill:none;stroke:#000000;stroke-width:2;stroke-linecap:round;stroke-linejoin:miter;stroke-miterlimit:4;stroke-dasharray:none;stroke-opacity:1"
                   d="m 333.2629,145.76516 c 0,0 7.81932,-6.49164 12.53494,-8.04481 4.95664,-1.63257 15.62189,-1.02899 15.62189,-1.02899"
                   id="path61377-4-7"
                   sodipodi:nodetypes="cac" />
                <path
                   style="display:inline;fill:none;stroke:#000000;stroke-width:2;stroke-linecap:round;stroke-linejoin:miter;stroke-miterlimit:4;stroke-dasharray:none;stroke-opacity:1"
                   d="m 333.2629,145.76516 c 0,0 4.85863,-7.26379 8.20861,-9.96542 2.88687,-2.32815 9.89139,-5.09403 9.89139,-5.09403"
                   id="path62751-7-4"
                   sodipodi:nodetypes="cac" />
                <path
                   style="display:inline;fill:#000000;stroke:#000000;stroke-width:2;stroke-linecap:butt;stroke-linejoin:miter;stroke-miterlimit:4;stroke-dasharray:none;stroke-opacity:1"
                   d="m 312.4322,152.59356 c 3.12795,-0.0477 5.32211,-0.0546 8.31013,0.0508 2.52179,0.0889 2.74111,1.99244 1.4468,2.79531 -2.95714,1.83435 -4.82184,3.19602 -5.85337,3.8434 -0.90055,0.56518 -1.48361,0.61705 -3.46148,-1.0448 -1.27321,-1.06977 -2.43073,-1.63931 -3.88434,-3.13069 -0.97674,-1.00213 -0.53671,-1.95513 1.00522,-2.28621 1.31319,-0.28196 2.43704,-0.22779 2.43704,-0.22779 z"
                   id="path61093-0"
                   sodipodi:nodetypes="sssssssss" />
                <path
                   style="display:inline;fill:none;stroke:#000000;stroke-width:2;stroke-linecap:round;stroke-linejoin:miter;stroke-miterlimit:4;stroke-dasharray:none;stroke-opacity:1"
                   d="m 299.86189,161.76989 c 0,0 0.67962,1.33239 1.39561,2.15263 1.75338,2.00868 4.29968,3.75366 6.9592,3.94355 2.53989,0.18135 7.11384,-2.78368 7.11384,-2.78368 0,0 2.20603,1.86889 3.55693,2.24242 2.16188,0.59776 4.60402,0.56864 6.72722,-0.15459 1.48348,-0.50532 2.69742,-1.65907 3.7889,-2.78367 0.63238,-0.65157 1.54648,-2.24242 1.54648,-2.24242 v 0"
                   id="path61095-6"
                   sodipodi:nodetypes="csacaaacc" />
                <path
                   style="display:inline;fill:#ffd5d5;stroke:#000000;stroke-width:2.04171;stroke-linecap:butt;stroke-linejoin:miter;stroke-miterlimit:4;stroke-dasharray:none;stroke-opacity:1"
                   d="m 307.18845,167.5999 c 0,0 -0.31116,8.53717 2.60853,10.83297 2.64082,2.0765 7.44589,2.06882 10.07829,-0.0183 2.89689,-2.29688 3.04822,-6.93965 2.54846,-10.79418 0,0 -2.65446,-0.18035 -3.86675,-0.67214 -1.20434,-0.48857 -3.22091,-2.19724 -3.22091,-2.19724 0,0 -1.66013,1.30791 -2.58492,1.80851 -0.88751,0.48042 -1.81579,0.95239 -2.80957,1.12809 -0.90415,0.15986 -2.75313,-0.0877 -2.75313,-0.0877 z"
                   id="path63118-1"
                   sodipodi:nodetypes="caacacaac" />
                <path
                   style="display:inline;fill:none;stroke:#000000;stroke-width:2;stroke-linecap:butt;stroke-linejoin:miter;stroke-miterlimit:4;stroke-dasharray:none;stroke-opacity:1"
                   d="m 346.10136,171.14596 c -1.78908,1.67615 -3.32772,3.75003 -4.37008,5.99148 -0.66896,1.43849 -1.16295,3.03627 -1.13319,4.62242 0.0343,1.8296 0.47397,3.76809 1.5062,5.27909 0.84934,1.2433 2.12652,2.40471 3.59578,2.73403 1.6694,0.37418 3.96066,-0.37024 5.02067,-1.06539 l 2.2713,-1.59101 c 0,0 1.16274,1.89198 2.06791,2.46931 1.2497,0.79708 2.816,1.24734 4.29515,1.1513 2.07987,-0.13504 4.23327,-0.98868 5.77951,-2.38626 0.81049,-0.73258 1.54962,-2.88805 1.54962,-2.88805 0,0 2.21901,0.70527 3.34421,0.58466 1.17163,-0.12559 2.3689,-0.57857 3.27405,-1.33301 1.03529,-0.8629 2.0842,-2.52135 2.17431,-3.40883 0.16455,-1.62062 0.34453,-2.85457 -0.14859,-4.14686 -0.92467,-2.42322 -2.72695,-4.68673 -4.97236,-5.98486 -5.28011,-3.05258 -11.99526,-3.98863 -18.03068,-3.11034 -2.29095,0.33339 -4.53435,1.4995 -6.22381,3.08232 z"
                   id="path102467-3"
                   sodipodi:nodetypes="saaaaccaaacaasaaas" />
                <path
                   style="fill:none;stroke:#000000;stroke-width:2;stroke-linecap:round;stroke-linejoin:miter;stroke-miterlimit:4;stroke-dasharray:none;stroke-opacity:1"
                   d="m 257.27897,125.93168 c 0,0 4.02954,-18.00675 8.74759,-25.7457 4.39054,-7.201739 17.5682,-18.210854 17.5682,-18.210854"
                   id="path107960"
                   sodipodi:nodetypes="cac" />
                <path
                   style="display:inline;fill:none;stroke:#000000;stroke-width:2;stroke-linecap:round;stroke-linejoin:miter;stroke-miterlimit:4;stroke-dasharray:none;stroke-opacity:1"
                   d="m 297.89258,145.76516 c 0,0 -7.81932,-6.49164 -12.53494,-8.04481 -4.95664,-1.63257 -15.62189,-1.02899 -15.62189,-1.02899"
                   id="path112419"
                   sodipodi:nodetypes="cac" />
                <path
                   style="display:inline;fill:none;stroke:#000000;stroke-width:2;stroke-linecap:round;stroke-linejoin:miter;stroke-miterlimit:4;stroke-dasharray:none;stroke-opacity:1"
                   d="m 297.89258,145.76516 c 0,0 -4.85863,-7.26379 -8.20861,-9.96542 -2.88687,-2.32815 -9.89139,-5.09403 -9.89139,-5.09403"
                   id="path112421"
                   sodipodi:nodetypes="cac" />
                <path
                   style="display:inline;fill:none;stroke:#000000;stroke-width:2;stroke-linecap:round;stroke-linejoin:miter;stroke-miterlimit:4;stroke-dasharray:none;stroke-opacity:1"
                   d="m 376.08229,182.27766 h 45.27546"
                   id="path62632" />
                <path
                   style="display:inline;fill:none;stroke:#000000;stroke-width:2.77866;stroke-linecap:round;stroke-linejoin:miter;stroke-miterlimit:4;stroke-dasharray:none;stroke-opacity:1"
                   d="M 246.92268,182.27766 H 192.44259"
                   id="path62634-4"
                   sodipodi:nodetypes="cc" />
              </g>
              <text
                 xml:space="preserve"
                 style="font-style:normal;font-weight:normal;font-size:35.2778px;line-height:1.25;font-family:sans-serif;fill:#000000;fill-opacity:1;stroke:none;stroke-width:0.264583"
                 x="4.113348"
                 y="216.93808"
                 id="text74748"><tspan
                   sodipodi:role="line"
                   id="tspan74746"
                   style="font-style:normal;font-variant:normal;font-weight:bold;font-stretch:normal;font-size:35.2778px;font-family:sans-serif;-inkscape-font-specification:'sans-serif Bold';stroke-width:0.264583"
                   x="4.113348"
                   y="216.93808">Dogs Care</tspan></text>
              <path
                 style="fill:none;stroke:#000000;stroke-width:2.00114;stroke-linecap:round;stroke-linejoin:miter;stroke-miterlimit:4;stroke-dasharray:none;stroke-opacity:1"
                 d="M -9.0610724,231.75474 H 220.33036"
                 id="path80365" />
            </g>
          </g>
        </g>
      </g>
    </g>
  </g>
</svg>
